<?xml version="1.0" standalone="no"?>
<!DOCTYPE svg PUBLIC "-//W3C//DTD SVG 20010904//EN"
 "http://www.w3.org/TR/2001/REC-SVG-20010904/DTD/svg10.dtd">
<svg version="1.0" xmlns="http://www.w3.org/2000/svg"
 width="1600.000000pt" height="1600.000000pt" viewBox="0 0 1600.000000 1600.000000"
 preserveAspectRatio="xMidYMid meet">
<metadata>
Created by potrace 1.16, written by Peter Selinger 2001-2019
</metadata>
<g transform="translate(0.000000,1600.000000) scale(0.100000,-0.100000)"
fill="#000000" stroke="none">
<path d="M2317 14979 c-321 -56 -607 -207 -848 -448 -225 -226 -358 -462 -437
-781 l-27 -105 -3 -4600 c-2 -4521 -2 -4602 17 -4715 55 -324 206 -615 441
-851 122 -122 204 -188 330 -263 166 -99 392 -177 595 -206 59 -8 1288 -10
4665 -8 l4585 3 115 29 c150 37 252 74 378 139 448 229 768 662 853 1155 19
112 19 203 19 4672 0 4469 0 4560 -19 4672 -57 329 -207 615 -450 859 -244
244 -529 393 -856 449 -116 20 -154 20 -4683 19 -4447 -1 -4570 -1 -4675 -20z
m9133 -988 c247 -26 438 -180 517 -415 l27 -81 4 -747 3 -748 -1000 0 -1001 0
0 1000 0 1000 683 0 c375 0 720 -4 767 -9z m-4169 -3017 c804 -112 1455 -700
1654 -1494 75 -298 75 -661 0 -960 -198 -795 -843 -1375 -1660 -1495 -145 -21
-405 -21 -550 0 -892 131 -1570 807 -1699 1696 -21 140 -21 418 0 558 42 287
133 539 284 782 303 488 826 830 1400 913 134 19 433 20 571 0z m-3281 -2082
c0 -130 22 -324 55 -487 171 -847 701 -1578 1458 -2015 354 -203 770 -337
1187 -380 52 -5 187 -10 300 -10 304 0 520 28 785 101 668 183 1255 591 1658
1153 336 469 533 1031 554 1584 l6 162 999 0 998 0 -2 -2247 -3 -2248 -23 -70
c-67 -200 -215 -346 -412 -407 l-75 -23 -4485 0 -4485 0 -75 23 c-197 61 -345
207 -412 407 l-23 70 -3 2248 -2 2247 1000 0 1000 0 0 -108z"/>
</g>
</svg>
